<svg width="315" height="17" viewBox="0 0 315 17" fill="none" xmlns="http://www.w3.org/2000/svg">
<g clip-path="url(#clip0_18_440)">
<path d="M314.5 4.15081C311.522 4.24473 308.532 4.46076 305.566 4.40911C285.168 4.05691 264.771 3.45582 244.362 3.31964C223.796 3.18346 203.185 3.27738 182.63 3.67184C164.649 4.01464 146.679 4.71433 128.81 5.63005C113.571 6.40958 98.4894 7.75261 83.3178 8.79042C60.9087 10.3307 39.0727 12.8383 17.3717 15.5667C14.3486 15.9471 11.4379 16.473 8.41477 16.8534C5.66139 17.2009 3.35756 16.9567 1.66058 15.8391C-0.306116 14.5383 0.143409 13.848 3.64975 13.4629C24.4967 11.1948 45.2875 8.8092 66.2469 6.72889C76.7659 5.68638 87.5995 5.16515 98.3208 4.48423C106.873 3.9395 115.448 3.27736 124.056 3.09892C129.462 2.99091 134.508 2.34757 139.734 2.11278C151.478 1.59152 163.289 1.36611 175.067 0.990433C181.877 0.774418 188.665 0.445701 195.476 0.286038C201.567 0.140463 207.692 0.0794121 213.794 0.135764C217.143 0.168635 220.469 0.563098 223.83 0.694585C225.257 0.750936 227.033 0.750927 228.145 0.450385C232.876 -0.822221 237.304 1.07495 242.609 0.422211C248.914 -0.357319 256.342 0.422229 263.276 0.558412C266.917 0.633547 270.581 0.713383 274.188 0.91531C278.965 1.17828 283.685 1.59621 288.45 1.87328C289.933 1.9578 291.574 1.65725 293.024 1.77465C295.575 1.98127 298.002 2.46966 300.565 2.6669C305.183 3.01909 309.847 3.2445 314.5 3.52156C314.5 3.72819 314.489 3.93481 314.478 4.14144L314.5 4.15081Z" fill="url(#paint0_linear_18_440)"/>
</g>
<defs>
<linearGradient id="paint0_linear_18_440" x1="-24.3221" y1="15.6561" x2="-22.4868" y2="-18.2445" gradientUnits="userSpaceOnUse">
<stop stop-color="#11BABA"/>
<stop offset="0.5" stop-color="#57E4E4"/>
<stop offset="1" stop-color="#E3FCEF"/>
</linearGradient>
<clipPath id="clip0_18_440">
<rect width="314" height="17" fill="white" transform="translate(0.5)"/>
</clipPath>
</defs>
</svg>
